# xmcd
#
# Track frame offsets:
#	150
#	11866
#	31112
#	51506
#	59546
#	77667
#	100907
#	108142
#	130832
#	139839
#	181638
#	211288
#	228160
#
# Disc length: 3050 seconds
#
# Revision: 0
# Processed by: cddbd v1.5.2PL0 Copyright (c) Steve Scherf et al.
# Submitted via: audiograbber 1.83.01
#
DISCID=a70be80d
DTITLE=Käpt'n Sharky - ...rettet den kleinen Wal
DYEAR=2013
DGENRE=Kids
TTITLE0=Sharkys Piratenlied 7 (Lied)
TTITLE1=Mensch, entere mich nicht!
TTITLE2=Der Weg nach Norden
TTITLE3=Zitterbitterkalt (Lied)
TTITLE4=Packeis voraus
TTITLE5=Bei den Inuit
TTITLE6=Viele, viele Arten von Schnee (Lied)
TTITLE7=Die Wale
TTITLE8=Wenn ein Wal seine Lieder singt (Lied)
TTITLE9=Die Befreiung
TTITLE10=Die Flucht
TTITLE11=Sharky's Piratenlied - Reprise (Lied)
TTITLE12=Daten-CD
EXTD=Idee: Jutta Langreuter\nIllustration: Silvio Neuendorf\nKäpt'n Sharky: Dir
EXTD=k Bach\nRatte, Coco, Fips, Kaitän Drax: Thomas Nicolai\nMichi: Lara Torp\n
EXTD=Sepio: Benny Zobrys\nAput: Moritz Schulze\nMaat: Denis Abrahams\nErzähler:
EXTD=Rainer Bielfeldt\nPiratenchor: viele andere Stimmen...
EXTT0=
EXTT1=
EXTT2=
EXTT3=
EXTT4=
EXTT5=
EXTT6=
EXTT7=
EXTT8=
EXTT9=
EXTT10=
EXTT11=
EXTT12=
PLAYORDER=
